<svg id="Layer_2" data-name="Layer 2" xmlns="http://www.w3.org/2000/svg" xmlns:xlink="http://www.w3.org/1999/xlink" viewBox="0 0 40 38.81"><defs><style>.cls-1{fill:none;}.cls-2{fill:red;}.cls-3{clip-path:url(#clip-path);}.cls-4{fill:#fff;}.cls-5{clip-path:url(#clip-path-2);}</style><clipPath id="clip-path" transform="translate(0 -1.19)"><circle class="cls-1" cx="20" cy="24" r="16"/></clipPath><clipPath id="clip-path-2" transform="translate(0 -1.19)"><rect class="cls-1" width="38" height="26"/></clipPath></defs><circle class="cls-2" cx="20" cy="22.81" r="16"/><g class="cls-3"><path class="cls-4" d="M26.78,20.2,25,22l-1.53-1.54,3.85-3.78h1.88c2.71,0,7.27-1.14,7.27-8.78v-2L30.69,8.63,29.51,7.39,32,1.55H30.1c-3.09,0-5.41.75-6.9,2.24a6.8,6.8,0,0,0-1.87,5v1.88l-3.8,3.89L11.22,8.24l2-2L5,1.19,2.35,3.79l5,8.25,2-2,6.32,6.32L1.42,30.87,0,35.59l2.35,2.25L7,36.69,21.65,22.25,23.2,23.8l-1.82,1.8L34.6,38.81l5.4-5.4Z" transform="translate(0 -1.19)"/><path d="M25,22.54,23,20.48l4.22-4.15h2c2.58,0,6.9-1.11,6.9-8.41V6.47L30.66,9.1,29.13,7.5l2.4-5.56H30.15c-3,0-5.22.71-6.63,2.13a6.39,6.39,0,0,0-1.77,4.75v2l-4.16,4.26L10.75,8.27,12.7,6.32,5.1,1.68,2.87,3.87l4.6,7.61,2-2,6.84,6.84L1.74,31.15.47,35.51l2,2,4.35-1.07L21.7,21.76l2.07,2.07L22,25.63l12.7,12.69,4.88-4.88L26.84,20.74ZM7.8,8.54,5.18,4.16,5.35,4l4.4,2.64ZM5.94,34.71,3,35.43l-.51-.49.9-2.86L23.6,11.57V8.82a4.73,4.73,0,0,1,1.19-3.48,6.3,6.3,0,0,1,4-1.51L27,7.89l3.32,3.31,4-1.89c-.34,3.45-1.95,5.13-5,5.13H26.49Zm28.71,1L24.49,25.63l2.35-2.35L37,33.42Z" transform="translate(0 -1.19)"/></g><g class="cls-5"><path class="cls-4" d="M26.78,20.2,25,22l-1.53-1.54,3.85-3.78h1.88c2.71,0,7.27-1.14,7.27-8.78v-2L30.69,8.63,29.51,7.39,32,1.55H30.1c-3.09,0-5.41.75-6.9,2.24a6.8,6.8,0,0,0-1.87,5v1.88l-3.8,3.89L11.22,8.24l2-2L5,1.19,2.35,3.79l5,8.25,2-2,6.32,6.32L1.42,30.87,0,35.59l2.35,2.25L7,36.69,21.65,22.25,23.2,23.8l-1.82,1.8L34.6,38.81l5.4-5.4Z" transform="translate(0 -1.19)"/><path d="M25,22.54,23,20.48l4.22-4.15h2c2.58,0,6.9-1.11,6.9-8.41V6.47L30.66,9.1,29.13,7.5l2.4-5.56H30.15c-3,0-5.22.71-6.63,2.13a6.39,6.39,0,0,0-1.77,4.75v2l-4.16,4.26L10.75,8.27,12.7,6.32,5.1,1.68,2.87,3.87l4.6,7.61,2-2,6.84,6.84L1.74,31.15.47,35.51l2,2,4.35-1.07L21.7,21.76l2.07,2.07L22,25.63l12.7,12.69,4.88-4.88L26.84,20.74ZM7.8,8.54,5.18,4.16,5.35,4l4.4,2.64ZM5.94,34.71,3,35.43l-.51-.49.9-2.86L23.6,11.57V8.82a4.73,4.73,0,0,1,1.19-3.48,6.3,6.3,0,0,1,4-1.51L27,7.89l3.32,3.31,4-1.89c-.34,3.45-1.95,5.13-5,5.13H26.49Zm28.71,1L24.49,25.63l2.35-2.35L37,33.42Z" transform="translate(0 -1.19)"/></g></svg>